<svg id="Light_1px_more_horizontal" data-name="Light 1px/more_horizontal" xmlns="http://www.w3.org/2000/svg" width="25" height="25" viewBox="0 0 25 25">
  <rect id="Light_1px_more_horizontal_background" data-name="Light 1px/more_horizontal background" width="25" height="25" fill="#fff" opacity="0"/>
  <path id="Combined_Shape" data-name="Combined Shape" d="M18.229,5.209a2.6,2.6,0,1,1,2.6-2.6A2.607,2.607,0,0,1,18.229,5.209Zm0-4.167A1.562,1.562,0,1,0,19.792,2.6,1.564,1.564,0,0,0,18.229,1.042ZM10.417,5.209a2.6,2.6,0,1,1,2.6-2.6A2.607,2.607,0,0,1,10.417,5.209Zm0-4.167A1.562,1.562,0,1,0,11.979,2.6,1.565,1.565,0,0,0,10.417,1.042ZM2.6,5.209a2.6,2.6,0,1,1,2.6-2.6A2.607,2.607,0,0,1,2.6,5.209Zm0-4.167A1.562,1.562,0,1,0,4.166,2.6,1.565,1.565,0,0,0,2.6,1.042Z" transform="translate(2.083 9.896)"/>
  <path id="Combined_Shape-2" data-name="Combined Shape" d="M18.229,5.209a2.6,2.6,0,1,1,2.6-2.6A2.607,2.607,0,0,1,18.229,5.209Zm0-4.167A1.562,1.562,0,1,0,19.792,2.6,1.564,1.564,0,0,0,18.229,1.042ZM10.417,5.209a2.6,2.6,0,1,1,2.6-2.6A2.607,2.607,0,0,1,10.417,5.209Zm0-4.167A1.562,1.562,0,1,0,11.979,2.6,1.565,1.565,0,0,0,10.417,1.042ZM2.6,5.209a2.6,2.6,0,1,1,2.6-2.6A2.607,2.607,0,0,1,2.6,5.209Zm0-4.167A1.562,1.562,0,1,0,4.166,2.6,1.565,1.565,0,0,0,2.6,1.042Z" transform="translate(2.083 16.896)"/>
  <path id="Combined_Shape-3" data-name="Combined Shape" d="M18.229,5.209a2.6,2.6,0,1,1,2.6-2.6A2.607,2.607,0,0,1,18.229,5.209Zm0-4.167A1.562,1.562,0,1,0,19.792,2.6,1.564,1.564,0,0,0,18.229,1.042ZM10.417,5.209a2.6,2.6,0,1,1,2.6-2.6A2.607,2.607,0,0,1,10.417,5.209Zm0-4.167A1.562,1.562,0,1,0,11.979,2.6,1.565,1.565,0,0,0,10.417,1.042ZM2.6,5.209a2.6,2.6,0,1,1,2.6-2.6A2.607,2.607,0,0,1,2.6,5.209Zm0-4.167A1.562,1.562,0,1,0,4.166,2.6,1.565,1.565,0,0,0,2.6,1.042Z" transform="translate(2.083 2.896)"/>
</svg>
