<svg id="Light_1px_location" data-name="Light 1px/location" xmlns="http://www.w3.org/2000/svg" width="25" height="25" viewBox="0 0 25 25">
  <rect id="Light_1px_location_background" data-name="Light 1px/location background" width="25" height="25" fill="#fff" opacity="0.003"/>
  <g id="Group" transform="translate(4.13 2.083)">
    <path id="Shape" d="M8.37,20.908a1.773,1.773,0,0,1-1.376-.66C5.5,18.423,3.769,16.189,1.842,13.609L1.836,13.6A8.277,8.277,0,0,1,0,8.37a8.37,8.37,0,1,1,15.5,4.376c-.171.28-4.126,5.505-5.758,7.5A1.775,1.775,0,0,1,8.37,20.908Zm0-19.867A7.337,7.337,0,0,0,1.042,8.37a7.244,7.244,0,0,0,1.607,4.579l.007.008.022.028.128.171.358.476c.292.387.733.971,1.24,1.632,1.336,1.747,2.479,3.2,3.4,4.326a.724.724,0,0,0,1.139,0c1.156-1.415,2.49-3.137,3.4-4.332.533-.7.97-1.272,1.242-1.633l.359-.477.072-.1a1.117,1.117,0,0,1,.072-.1A7.244,7.244,0,0,0,15.7,8.37,7.336,7.336,0,0,0,8.37,1.042Z" fill="#000aff"/>
    <path id="Combined_Shape" data-name="Combined Shape" d="M3.149,15.534H3.125C1.751,15.5-.251,12.4-1.689,9.815c-1.557-2.8-2.806-5.638-2.819-5.666a9.4,9.4,0,0,1,0-2.333A5.67,5.67,0,0,1-3.764-.431a.469.469,0,0,0,.107-.346c0-1.083,1.719-1.982,2.744-2.421A12.574,12.574,0,0,1,3.125-4.235c1.961,0,6.009.577,6.009,2.362,0,.2.182.444.433.775a5.028,5.028,0,0,1,1.179,4.178c-.011.078-.022.159-.034.245A10.743,10.743,0,0,1,10.1,5.861a32.387,32.387,0,0,1-2,4.231A30.61,30.61,0,0,0,6.1,12.685C5,14.214,4.053,15.534,3.149,15.534ZM3.125,1.113A2.161,2.161,0,0,0,1.041,3.34,2.161,2.161,0,0,0,3.125,5.566,2.161,2.161,0,0,0,5.208,3.34,2.161,2.161,0,0,0,3.125,1.113Z" transform="translate(5.245 5.208)" fill="#000aff"/>
  </g>
</svg>
