<svg id="Light_1px_show" data-name="Light 1px/show" xmlns="http://www.w3.org/2000/svg" width="25" height="25" viewBox="0 0 25 25">
  <rect id="Light_1px_show_background" data-name="Light 1px/show background" width="25" height="25" fill="#fff" opacity="0.001"/>
  <g id="Group" transform="translate(2.383 5.208)">
    <path id="Combined_Shape" data-name="Combined Shape" d="M10.117,14.584A10.247,10.247,0,0,1,3.649,12.3,14.254,14.254,0,0,1,.327,8.472a2.293,2.293,0,0,1,0-2.362A14.259,14.259,0,0,1,3.649,2.282a10.308,10.308,0,0,1,12.936,0,14.275,14.275,0,0,1,3.322,3.829,2.293,2.293,0,0,1,0,2.362,14.27,14.27,0,0,1-3.322,3.83A10.248,10.248,0,0,1,10.117,14.584Zm0-13.542A9.241,9.241,0,0,0,4.293,3.1,13.176,13.176,0,0,0,1.221,6.647a1.238,1.238,0,0,0,0,1.29,13.181,13.181,0,0,0,3.073,3.546,9.268,9.268,0,0,0,11.647,0,13.18,13.18,0,0,0,3.073-3.546,1.238,1.238,0,0,0,0-1.29A13.175,13.175,0,0,0,15.941,3.1,9.243,9.243,0,0,0,10.117,1.042Z"/>
    <path id="Combined_Shape-2" data-name="Combined Shape" d="M3.125,6.25A3.125,3.125,0,1,1,6.25,3.125,3.129,3.129,0,0,1,3.125,6.25Zm0-5.209A2.084,2.084,0,1,0,5.209,3.125,2.085,2.085,0,0,0,3.125,1.042Z" transform="translate(6.992 4.167)"/>
  </g>
</svg>
