<svg id="Light_1px_download" data-name="Light 1px/download" xmlns="http://www.w3.org/2000/svg" width="25" height="25" viewBox="0 0 25 25">
  <rect id="Light_1px_download_background" data-name="Light 1px/download background" width="25" height="25" fill="#fff" opacity="0"/>
  <g id="Group" transform="translate(3.646 4.687)">
    <path id="Path_13_Copy_5_Stroke_" data-name="Path 13 Copy 5 (Stroke)" d="M1.042.521V2.6A1.563,1.563,0,0,0,2.6,4.167H15.1A1.562,1.562,0,0,0,16.667,2.6V.521a.521.521,0,1,1,1.042,0V2.6a2.6,2.6,0,0,1-2.6,2.6H2.6A2.6,2.6,0,0,1,0,2.6V.521a.521.521,0,0,1,1.042,0Z" transform="translate(0 10.417)"/>
    <path id="Union" d="M5.208,0a.521.521,0,0,0-.521.521V10.2L.889,6.4a.521.521,0,0,0-.737.737L4.1,11.091a1.562,1.562,0,0,0,2.21,0l3.949-3.949a.521.521,0,0,0-.737-.737l-3.8,3.8V.521A.521.521,0,0,0,5.208,0Z" transform="translate(3.648)"/>
  </g>
</svg>
