<svg id="Light_1px_tile_view" data-name="Light 1px/tile_view" xmlns="http://www.w3.org/2000/svg" width="25" height="25" viewBox="0 0 25 25">
  <rect id="Light_1px_tile_view_background" data-name="Light 1px/tile_view background" width="25" height="25" fill="#fff" opacity="0.002"/>
  <g id="Group" transform="translate(3.125 3.125)">
    <path id="Combined_Shape" data-name="Combined Shape" d="M15.625,8.333H3.125A3.128,3.128,0,0,1,0,5.209V3.125A3.128,3.128,0,0,1,3.125,0h12.5A3.128,3.128,0,0,1,18.75,3.125V5.209A3.128,3.128,0,0,1,15.625,8.333ZM3.125,1.042A2.085,2.085,0,0,0,1.042,3.125V5.209A2.085,2.085,0,0,0,3.125,7.292h12.5a2.085,2.085,0,0,0,2.083-2.083V3.125a2.085,2.085,0,0,0-2.083-2.083Z"/>
    <path id="Combined_Shape-2" data-name="Combined Shape" d="M15.625,8.333H3.125A3.128,3.128,0,0,1,0,5.209V3.125A3.128,3.128,0,0,1,3.125,0h12.5A3.128,3.128,0,0,1,18.75,3.125V5.209A3.128,3.128,0,0,1,15.625,8.333ZM3.125,1.042A2.085,2.085,0,0,0,1.042,3.125V5.209A2.085,2.085,0,0,0,3.125,7.292h12.5a2.085,2.085,0,0,0,2.083-2.083V3.125a2.085,2.085,0,0,0-2.083-2.083Z" transform="translate(0 10.417)"/>
  </g>
</svg>
