<svg xmlns="http://www.w3.org/2000/svg" width="26" height="26" viewBox="0 0 26 26">
  <g id="Light_1px_location" data-name="Light 1px/location" transform="translate(0.5 0.5)">
    <rect id="Light_1px_location_background" data-name="Light 1px/location background" width="25" height="25" fill="none" stroke="#e9edf2" stroke-width="1" opacity="0"/>
    <g id="Group" transform="translate(4.13 2.083)">
      <path id="Shape" d="M8.37,20.908a1.773,1.773,0,0,1-1.376-.66C5.5,18.423,3.769,16.189,1.842,13.609L1.836,13.6A8.277,8.277,0,0,1,0,8.37a8.37,8.37,0,1,1,15.5,4.376c-.171.28-4.126,5.505-5.758,7.5A1.775,1.775,0,0,1,8.37,20.908Zm0-19.867A7.337,7.337,0,0,0,1.042,8.37a7.244,7.244,0,0,0,1.607,4.579l.007.008.022.028.128.171.358.476c.292.387.733.971,1.24,1.632,1.336,1.747,2.479,3.2,3.4,4.326a.724.724,0,0,0,1.139,0c1.156-1.415,2.49-3.137,3.4-4.332.533-.7.97-1.272,1.242-1.633l.359-.477.072-.1a1.117,1.117,0,0,1,.072-.1A7.244,7.244,0,0,0,15.7,8.37,7.336,7.336,0,0,0,8.37,1.042Z" fill="#b5005b"/>
      <path id="Combined_Shape" data-name="Combined Shape" d="M3.125,6.25A3.125,3.125,0,1,1,6.25,3.125,3.129,3.129,0,0,1,3.125,6.25Zm0-5.209A2.084,2.084,0,1,0,5.209,3.125,2.085,2.085,0,0,0,3.125,1.042Z" transform="translate(5.245 5.208)" fill="#b5005b"/>
    </g>
  </g>
</svg>
