<svg id="Light_1px_mic_off" data-name="Light 1px/mic_off" xmlns="http://www.w3.org/2000/svg" width="25" height="25" viewBox="0 0 25 25">
  <rect id="Light_1px_mic_off_background" data-name="Light 1px/mic_off background" width="25" height="25" fill="#fff" opacity="0"/>
  <g id="Group" transform="translate(2.604 2.083)">
    <path id="Combined_Shape" data-name="Combined Shape" d="M3.646,11.458a.521.521,0,1,1,0-1.042h2.6V7.272A6.772,6.772,0,0,1,0,.521a.521.521,0,1,1,1.042,0A5.729,5.729,0,0,0,6.771,6.25a5.709,5.709,0,0,0,3.893-1.526l.737.737A6.746,6.746,0,0,1,7.292,7.272v3.144H9.9a.521.521,0,0,1,0,1.042Zm7.716-7.509A5.7,5.7,0,0,0,12.5.521a.521.521,0,1,1,1.042,0A6.74,6.74,0,0,1,12.1,4.691Z" transform="translate(3.125 8.854)"/>
    <path id="Combined_Shape-2" data-name="Combined Shape" d="M3.125,12.5A3.128,3.128,0,0,1,0,9.375V6.56L1.042,7.6V9.375a2.085,2.085,0,0,0,2.083,2.083,2.062,2.062,0,0,0,1.311-.463l.739.739A3.121,3.121,0,0,1,3.125,12.5Zm2.714-1.574h0l-.777-.777a2.07,2.07,0,0,0,.148-.773V3.125a2.084,2.084,0,0,0-4.167,0v3L0,5.087V3.125a3.125,3.125,0,0,1,6.25,0v6.25a3.129,3.129,0,0,1-.411,1.549Z" transform="translate(6.771)"/>
    <path id="Vector_606_Stroke_" data-name="Vector 606 (Stroke)" d="M.889.153,19.639,18.9a.521.521,0,0,1-.737.737L.153.889A.521.521,0,0,1,.889.153Z" transform="translate(0 0.521)"/>
  </g>
</svg>
