<svg xmlns="http://www.w3.org/2000/svg" width="25" height="25" viewBox="0 0 25 25">
  <g id="Group_2962" data-name="Group 2962" transform="translate(-4 -4)">
    <g id="Light_1px_play_circled" data-name="Light 1px/play_circled" transform="translate(4 4)">
      <rect id="Light_1px_play_circled_background" data-name="Light 1px/play_circled background" width="25" height="25" fill="#fff"/>
      <g id="Group" transform="translate(2.083 2.083)">
        <path id="Combined_Shape" data-name="Combined Shape" d="M10.417,20.833A10.417,10.417,0,1,1,20.833,10.417,10.428,10.428,0,0,1,10.417,20.833Zm0-19.792a9.375,9.375,0,1,0,9.375,9.375A9.386,9.386,0,0,0,10.417,1.042Z" fill="#e2875e"/>
        <path id="Combined_Shape-2" data-name="Combined Shape" d="M2.086,9.456h0A2.089,2.089,0,0,1,0,7.37V2.087A2.089,2.089,0,0,1,2.087,0,2.053,2.053,0,0,1,3.125.282L7.7,2.924a2.084,2.084,0,0,1,0,3.608L3.125,9.173A2.052,2.052,0,0,1,2.086,9.456Zm0-8.414h0a1.06,1.06,0,0,0-.726.294,1.029,1.029,0,0,0-.318.75V7.37A1.044,1.044,0,0,0,2.085,8.413,1.027,1.027,0,0,0,2.6,8.271L7.179,5.63a1.041,1.041,0,0,0,0-1.8L2.6,1.184a1.028,1.028,0,0,0-.519-.141Z" transform="translate(6.25 5.689)" fill="#e2875e"/>
      </g>
    </g>
  </g>
</svg>
