<svg xmlns="http://www.w3.org/2000/svg" width="25" height="25" viewBox="0 0 25 25">
  <g id="Group_2574" data-name="Group 2574" transform="translate(-3444 -12)">
    <rect id="Light_1px_add_circled_background" data-name="Light 1px/add_circled background" width="25" height="25" transform="translate(3444 12)" fill="#fff"/>
    <path id="Union" d="M4,0a.444.444,0,0,0-.444.444V3.556H.444a.444.444,0,1,0,0,.889H3.556V7.556a.444.444,0,1,0,.889,0V4.444H7.556a.444.444,0,1,0,0-.889H4.444V.444A.444.444,0,0,0,4,0Z" transform="translate(3452.5 20.5)" fill="#b5005b"/>
    <path id="Combined_Shape" data-name="Combined Shape" d="M11.333,22.667A11.333,11.333,0,1,1,22.667,11.333,11.346,11.346,0,0,1,11.333,22.667Zm0-21.533a10.2,10.2,0,1,0,10.2,10.2A10.212,10.212,0,0,0,11.333,1.133Z" transform="translate(3445.167 13.167)" fill="#b5005b"/>
  </g>
</svg>
