<svg id="Weekly" xmlns="http://www.w3.org/2000/svg" width="25" height="25" viewBox="0 0 25 25">
  <rect id="Light_1px_multiselect_background" data-name="Light 1px/multiselect background" width="25" height="25" fill="#fff" opacity="0"/>
  <g id="Group" transform="translate(1.75 1.75)">
    <path id="Combined_Shape" data-name="Combined Shape" d="M13.975,21.5H3.225A3.228,3.228,0,0,1,0,18.275V7.525A3.229,3.229,0,0,1,3.225,4.3H4.3V3.225A3.229,3.229,0,0,1,7.525,0h10.75A3.228,3.228,0,0,1,21.5,3.225v10.75A3.229,3.229,0,0,1,18.275,17.2H17.2v1.075A3.229,3.229,0,0,1,13.975,21.5ZM3.225,5.375a2.152,2.152,0,0,0-2.15,2.15v10.75a2.152,2.152,0,0,0,2.15,2.15h10.75a2.153,2.153,0,0,0,2.151-2.15V17.2h-8.6A3.229,3.229,0,0,1,4.3,13.975v-8.6Zm4.3-4.3a2.152,2.152,0,0,0-2.15,2.15v10.75a2.153,2.153,0,0,0,2.15,2.151h10.75a2.153,2.153,0,0,0,2.15-2.151V3.225a2.152,2.152,0,0,0-2.15-2.15Z" fill="#b5005b"/>
  </g>
</svg>
