<svg xmlns="http://www.w3.org/2000/svg" width="13.254" height="20.869" viewBox="0 0 13.254 20.869">
  <path id="Combined_Shape" data-name="Combined Shape" d="M9.752,20.869H3.5a3.125,3.125,0,0,1,0-6.249h.391l-3.5-5.6A2.607,2.607,0,0,1,.7,5.866L5.865.331a1.042,1.042,0,0,1,1.523,0l5.166,5.535a2.6,2.6,0,0,1,.3,3.157l-3.5,5.6h.391a3.125,3.125,0,0,1,0,6.249ZM3.5,15.661a2.083,2.083,0,0,0,0,4.166h6.25a2.083,2.083,0,1,0,0-4.166ZM6.106,1.6,1.461,6.577a1.567,1.567,0,0,0-.183,1.895L5.121,14.62H8.133l3.843-6.148a1.565,1.565,0,0,0-.183-1.895L7.148,1.6V6.352a2.083,2.083,0,1,1-1.042,0Zm.521,5.728A1.042,1.042,0,1,0,7.669,8.369,1.043,1.043,0,0,0,6.627,7.328Z"/>
</svg>
