<svg id="Light_1px_clock" data-name="Light 1px/clock" xmlns="http://www.w3.org/2000/svg" width="25" height="25" viewBox="0 0 25 25">
  <rect id="Light_1px_clock_background" data-name="Light 1px/clock background" width="25" height="25" fill="#fff" opacity="0"/>
  <g id="Group" transform="translate(2.083 2.083)">
    <path id="Combined_Shape" data-name="Combined Shape" d="M10.417,20.833A10.417,10.417,0,1,1,20.833,10.417,10.428,10.428,0,0,1,10.417,20.833Zm0-19.792a9.375,9.375,0,1,0,9.375,9.375A9.386,9.386,0,0,0,10.417,1.042Z" fill="#b5005b"/>
    <path id="Vector_479_Stroke_" data-name="Vector 479 (Stroke)" d="M1.042.521V5.3a.521.521,0,0,0,.153.368l2.3,2.3a.521.521,0,1,1-.737.737L.458,6.4A1.563,1.563,0,0,1,0,5.3V.521a.521.521,0,0,1,1.042,0Z" transform="translate(9.896 4.688)" fill="#b5005b"/>
  </g>
</svg>
