<svg id="Light_1px_help" data-name="Light 1px/help" xmlns="http://www.w3.org/2000/svg" width="25" height="25" viewBox="0 0 25 25">
  <rect id="Light_1px_help_background" data-name="Light 1px/help background" width="25" height="25" fill="#fff" opacity="0"/>
  <g id="Group" transform="translate(2.083 2.083)">
    <path id="Combined_Shape" data-name="Combined Shape" d="M10.417,20.833A10.417,10.417,0,1,1,20.833,10.417,10.428,10.428,0,0,1,10.417,20.833Zm0-19.792a9.375,9.375,0,1,0,9.375,9.375A9.386,9.386,0,0,0,10.417,1.042Z"/>
    <path id="Ellipse_190" data-name="Ellipse 190" d="M.521,1.042A.521.521,0,1,1,1.042.521.521.521,0,0,1,.521,1.042Z" transform="translate(9.896 15.625)"/>
    <path id="Ellipse_191_Stroke_" data-name="Ellipse 191 (Stroke)" d="M1.012,2.778A.521.521,0,1,1,.03,2.431,3.646,3.646,0,1,1,3.989,7.255v1.6a.521.521,0,1,1-1.042,0V6.771a.521.521,0,0,1,.521-.521A2.6,2.6,0,1,0,1.012,2.778Z" transform="translate(6.948 4.688)"/>
  </g>
</svg>
