<svg id="Group" xmlns="http://www.w3.org/2000/svg" width="20.833" height="20.833" viewBox="0 0 20.833 20.833">
  <path id="Combined_Shape" data-name="Combined Shape" d="M13.541,20.833H3.125A3.128,3.128,0,0,1,0,17.708V7.292A3.129,3.129,0,0,1,3.125,4.166H4.166V3.125A3.129,3.129,0,0,1,7.292,0H17.708a3.128,3.128,0,0,1,3.125,3.125V13.541a3.114,3.114,0,0,1-.876,2.17l-.039.039a3.1,3.1,0,0,1-2.21.916H16.667v1.042A3.129,3.129,0,0,1,13.541,20.833ZM3.125,5.209A2.085,2.085,0,0,0,1.042,7.292V17.708a2.085,2.085,0,0,0,2.083,2.083H13.541a2.086,2.086,0,0,0,2.084-2.083V16.667H7.292a3.113,3.113,0,0,1-3.109-2.806l0-.039c-.009-.095-.013-.189-.013-.28V5.209ZM9.488,6.83a2.081,2.081,0,0,0-1.6.75L5.209,10.793v2.748a2.086,2.086,0,0,0,2.083,2.084H17.708a2.072,2.072,0,0,0,.659-.107L11.023,7.506A2.059,2.059,0,0,0,9.488,6.83Zm0-1.041a3.091,3.091,0,0,1,2.3,1.013l7.461,8.139a2.077,2.077,0,0,0,.54-1.4V3.125a2.085,2.085,0,0,0-2.083-2.083H7.292A2.085,2.085,0,0,0,5.209,3.125V9.167L7.087,6.913A3.118,3.118,0,0,1,9.488,5.789Z" fill="#e2875e"/>
  <path id="Combined_Shape-2" data-name="Combined Shape" d="M1.563,3.125A1.562,1.562,0,1,1,3.125,1.563,1.564,1.564,0,0,1,1.563,3.125Zm0-2.083a.521.521,0,1,0,.52.521A.522.522,0,0,0,1.563,1.042Z" transform="translate(14.583 3.125)" fill="#e2875e"/>
</svg>
