<svg xmlns="http://www.w3.org/2000/svg" width="25" height="25" viewBox="0 0 25 25">
  <g id="Group_2952" data-name="Group 2952" transform="translate(-4 -4)">
    <g id="Light_1px_messages" data-name="Light 1px/messages" transform="translate(4 4)">
      <rect id="Light_1px_messages_background" data-name="Light 1px/messages background" width="25" height="25" fill="#fff"/>
      <g id="Group" transform="translate(2.083 1.806)">
        <path id="Combined_Shape" data-name="Combined Shape" d="M2.093,20.947h0A2.1,2.1,0,0,1,0,18.86V9.653A3.128,3.128,0,0,1,3.125,6.528H4.166V5.485A3.129,3.129,0,0,1,7.292,2.361h7.292L17.594.354A2.069,2.069,0,0,1,18.744,0a2.09,2.09,0,0,1,2.089,2.087v9.649a3.128,3.128,0,0,1-3.125,3.125H16.667V15.9a3.129,3.129,0,0,1-3.126,3.125H5.209L3.384,20.486A2.05,2.05,0,0,1,2.093,20.947ZM3.125,7.57A2.085,2.085,0,0,0,1.042,9.653V18.86A1.047,1.047,0,0,0,2.088,19.9a1.025,1.025,0,0,0,.646-.23l1.823-1.459a1.049,1.049,0,0,1,.652-.228h8.332A2.086,2.086,0,0,0,15.625,15.9V9.653A2.086,2.086,0,0,0,13.541,7.57ZM7.292,3.4A2.085,2.085,0,0,0,5.209,5.485V6.528h8.332a3.129,3.129,0,0,1,3.126,3.125v4.166h1.042a2.085,2.085,0,0,0,2.083-2.083V2.087a1.045,1.045,0,0,0-1.045-1.044,1.033,1.033,0,0,0-.574.176L15.161,3.228a1.044,1.044,0,0,1-.578.174Z" transform="translate(0 0)" fill="#e2875e"/>
        <path id="Vector_409_Stroke_" data-name="Vector 409 (Stroke)" d="M.521,0h6.25a.521.521,0,1,1,0,1.042H.521A.521.521,0,0,1,.521,0Z" transform="translate(4.688 12.257)" fill="#e2875e"/>
      </g>
    </g>
  </g>
</svg>
