<svg id="Light_1px_play" data-name="Light 1px/play" xmlns="http://www.w3.org/2000/svg" width="25" height="25" viewBox="0 0 25 25">
  <rect id="Light_1px_play_background" data-name="Light 1px/play background" width="25" height="25" fill="#fff" opacity="0"/>
  <path id="Combined_Shape" data-name="Combined Shape" d="M3.13,16.166h0A3.134,3.134,0,0,1,0,13.036V3.13A3.134,3.134,0,0,1,3.13,0,3.079,3.079,0,0,1,4.71.436l8.42,4.953a3.125,3.125,0,0,1,0,5.387L4.71,15.729A3.078,3.078,0,0,1,3.13,16.166Zm0-15.123h0A2.089,2.089,0,0,0,1.041,3.13v9.905a2.089,2.089,0,0,0,2.087,2.086,2.051,2.051,0,0,0,1.053-.291L12.6,9.878a2.083,2.083,0,0,0,0-3.591L4.181,1.335a2.081,2.081,0,0,0-1.053-.291Z" transform="translate(5.208 4.417)" fill="#5ee2a0" stroke="#5ee2a0" stroke-width="1"/>
</svg>
