<svg id="privacy" xmlns="http://www.w3.org/2000/svg" width="25" height="25" viewBox="0 0 25 25">
  <rect id="Light_1px_privacy_background" data-name="Light 1px/privacy background" width="25" height="25" fill="#fff" opacity="0"/>
  <path id="Combined_Shape" data-name="Combined Shape" d="M9.375,19.465a2.654,2.654,0,0,1-1.1-.238,20.415,20.415,0,0,1-4.758-2.963c-.278-.238-.546-.486-.8-.737A8.245,8.245,0,0,1,0,9.662V4.568A2.893,2.893,0,0,1,2.137,1.85L5.368-2.311A34.485,34.485,0,0,1,9.5-2.458a34.5,34.5,0,0,1,4.137.146L16.613,1.85A2.894,2.894,0,0,1,18.75,4.568V9.662a8.245,8.245,0,0,1-2.716,5.864c-.253.253-.521.5-.8.736a20.415,20.415,0,0,1-4.757,2.964A2.659,2.659,0,0,1,9.375,19.465Zm0-6.939a6.413,6.413,0,0,0-5.392,2.829,19.356,19.356,0,0,0,4.749,3.016,1.545,1.545,0,0,0,1.284,0,19.34,19.34,0,0,0,4.749-3.016A6.412,6.412,0,0,0,9.375,12.526Zm0-.954a7.453,7.453,0,0,1,6.13,3.063,7.211,7.211,0,0,0,2.2-4.973V4.568a1.93,1.93,0,0,0-1.425-1.812L10.034.847a2.266,2.266,0,0,0-1.318,0L2.466,2.756A1.93,1.93,0,0,0,1.041,4.568V9.662a7.215,7.215,0,0,0,2.2,4.973A7.454,7.454,0,0,1,9.375,11.572Zm0-.955A3.007,3.007,0,0,1,6.25,7.754,3.007,3.007,0,0,1,9.375,4.89,3.006,3.006,0,0,1,12.5,7.754,3.006,3.006,0,0,1,9.375,10.617Zm0-4.773A2,2,0,0,0,7.292,7.754,2,2,0,0,0,9.375,9.662a2,2,0,0,0,2.083-1.909A2,2,0,0,0,9.375,5.845Z" transform="translate(3.125 3.996)" fill="#e2875e"/>
</svg>
