<svg id="Light_1px_repeat" data-name="Light 1px/repeat" xmlns="http://www.w3.org/2000/svg" width="25" height="25" viewBox="0 0 25 25">
  <rect id="Light_1px_repeat_background" data-name="Light 1px/repeat background" width="25" height="25" fill="#fff" opacity="0.003"/>
  <g id="Group" transform="translate(3.646 3.125)">
    <path id="Union" d="M12.132.153a.521.521,0,0,0,0,.737L13.843,2.6H6.771A6.771,6.771,0,0,0,0,9.371v1.042a.521.521,0,1,0,1.042,0V9.371A5.729,5.729,0,0,1,6.771,3.642h7.077L12.132,5.358a.521.521,0,0,0,.737.737L15.1,3.86a1.042,1.042,0,0,0,0-1.473L12.868.153A.521.521,0,0,0,12.132.153Z" transform="translate(0)"/>
    <path id="Union-2" data-name="Union" d="M15.408,1.563V.521a.521.521,0,1,0-1.042,0V1.563A5.729,5.729,0,0,1,8.637,7.292H1.56L3.276,5.576a.521.521,0,0,0-.737-.737L.305,7.073a1.042,1.042,0,0,0,0,1.473l2.234,2.234a.521.521,0,1,0,.737-.737L1.565,8.333H8.637A6.771,6.771,0,0,0,15.408,1.563Z" transform="translate(2.299 7.812)"/>
  </g>
</svg>
