<svg id="Group" xmlns="http://www.w3.org/2000/svg" width="20.833" height="20.833" viewBox="0 0 20.833 20.833">
  <path id="Combined_Shape" data-name="Combined Shape" d="M10.417,20.833A10.417,10.417,0,1,1,20.833,10.417,10.428,10.428,0,0,1,10.417,20.833Zm0-19.792a9.375,9.375,0,1,0,9.375,9.375A9.386,9.386,0,0,0,10.417,1.042Z"/>
  <path id="Ellipse_204_Stroke_" data-name="Ellipse 204 (Stroke)" d="M1,.312A4.689,4.689,0,0,0,5.3,3.125,4.689,4.689,0,0,0,9.594.312a.521.521,0,0,1,.955.417A5.73,5.73,0,0,1,5.3,4.167,5.73,5.73,0,0,1,.044.729.521.521,0,0,1,1,.312Z" transform="translate(5.121 11.979)"/>
  <path id="Ellipse_202" data-name="Ellipse 202" d="M1.042,2.083A1.042,1.042,0,1,1,2.083,1.042,1.042,1.042,0,0,1,1.042,2.083Z" transform="translate(5.208 6.25)"/>
  <path id="Ellipse_203" data-name="Ellipse 203" d="M1.042,2.083A1.042,1.042,0,1,1,2.083,1.042,1.042,1.042,0,0,1,1.042,2.083Z" transform="translate(13.542 6.25)"/>
</svg>
